<?xml version="1.0" encoding="utf-8"?>
<!-- Generator: Adobe Illustrator 18.1.0, SVG Export Plug-In . SVG Version: 6.00 Build 0)  -->
<svg version="1.1" id="Layer_1" xmlns="http://www.w3.org/2000/svg" xmlns:xlink="http://www.w3.org/1999/xlink" x="0px" y="0px"
	 viewBox="0 0 21.5 30" style="enable-background:new 0 0 21.5 30;" xml:space="preserve">
<style type="text/css">
	.st0{fill-rule:evenodd;clip-rule:evenodd;fill:#FFFFFF;}
	.st1{fill:#FFFFFF;}
	.st2{fill:#00ACCD;}
	.st3{fill:#B3B3B3;}
	.st4{fill:#006472;}
	.st5{fill:#E5E5E5;}
	.st6{fill:#003239;}
	.st7{fill:#FFCC00;}
	.st8{fill:#FF3300;}
	.st9{fill:#F7921E;}
	.st10{fill:#646464;}
</style>
<g>
	<path class="st2" d="M21.4,7.4L21.4,7.4l-7.2-7.2C14,0.1,13.9,0,13.8,0H0.5C0.2,0,0,0.2,0,0.5v28.9C0,29.8,0.2,30,0.5,30H21
		c0.3,0,0.5-0.2,0.5-0.5V7.8C21.5,7.6,21.5,7.5,21.4,7.4z M14.3,1.8l5.4,5.4h-5.4V1.8z M20.5,28.9H1.1V1.1h12.1v6.7
		c0,0.3,0.2,0.5,0.5,0.5h6.7V28.9z"/>
	<path class="st2" d="M3.6,12.8c0,0.3,0.2,0.5,0.5,0.5h13.2c0.3,0,0.5-0.2,0.5-0.5c0-0.3-0.2-0.5-0.5-0.5H4.2
		C3.9,12.2,3.6,12.5,3.6,12.8z"/>
	<path class="st2" d="M17.4,16.2H4.2c-0.3,0-0.5,0.2-0.5,0.5c0,0.3,0.2,0.5,0.5,0.5h13.2c0.3,0,0.5-0.2,0.5-0.5
		C17.9,16.4,17.7,16.2,17.4,16.2z"/>
	<path class="st2" d="M17.4,20.1H4.2c-0.3,0-0.5,0.2-0.5,0.5c0,0.3,0.2,0.5,0.5,0.5h13.2c0.3,0,0.5-0.2,0.5-0.5
		C17.9,20.3,17.7,20.1,17.4,20.1z"/>
	<path class="st2" d="M17.4,24H4.2c-0.3,0-0.5,0.2-0.5,0.5c0,0.3,0.2,0.5,0.5,0.5h13.2c0.3,0,0.5-0.2,0.5-0.5
		C17.9,24.2,17.7,24,17.4,24z"/>
</g>
</svg>
