<?xml version="1.0" encoding="utf-8"?>
<!-- Generator: Adobe Illustrator 18.1.0, SVG Export Plug-In . SVG Version: 6.00 Build 0)  -->
<svg version="1.1" id="Layer_1" xmlns="http://www.w3.org/2000/svg" xmlns:xlink="http://www.w3.org/1999/xlink" x="0px" y="0px"
	 viewBox="0 0 120 106.7" style="enable-background:new 0 0 120 106.7;" xml:space="preserve">
<style type="text/css">
	.st0{fill-rule:evenodd;clip-rule:evenodd;fill:#FFFFFF;}
	.st1{fill:#FFFFFF;}
	.st2{fill:#00ACCD;}
	.st3{fill:#B3B3B3;}
	.st4{fill:#006472;}
	.st5{fill:#E5E5E5;}
	.st6{fill:#003239;}
	.st7{fill:#FFCC00;}
	.st8{fill:#FF3300;}
	.st9{fill:#F7921E;}
	.st10{fill:#646464;}
</style>
<g transform="translate(192 48)">
	<path class="st10" d="M-76.4,41.2c0-5.1-3.6-5.2-7.9-6.9l-20-8c-0.3-0.1-0.7-0.3-1-0.4v0c-3.6-1.6-6.7-3.8-7.8-5.4l0,0l0,0
		c-0.1-0.1-0.1-0.2-0.2-0.3l0-0.1l0,0l0,0v0c-0.5-0.8-1.1-1.2-1.5-1l0,0l0,0l0,0l0,0h0l0,0c-0.5,0.3-0.4,0-0.7-0.6
		c-0.5-1.5-1.4-4.2-1.6-4.7c-0.2-0.8-0.8,1.2-0.6-0.9l0.2-3.8c0.4-0.4,0.7-0.7,0.9-0.9c1.3-1.5,1.4-5.4,2-6.4c0.7-1,2-1.2,3.3-5.6
		c1.3-4.5,2.9-10.9,1.2-11c-0.4,0-0.9,0.2-1.4,0.7c0.3-1.6,0.9-5.4,1.1-8.1c0.2-3.6-0.4-12.9-2.5-16.3c-1.3-2.1-3.9-4.2-6.5-5.9
		c-1.5-1-3.1-1.8-4.4-2.4c-3.8-1.7-15.7-0.9-19.7,0c-4.6,1-7.8,3.9-9.8,7.3c-2,3.4-3,13.6-2.8,17.2c0.1,1.6,1.1,4.4,1.3,6
		c0.1,0.9,0.3,0.9,0.4,1.5c-0.2-0.1-0.3-0.1-0.5-0.1c-1.7,0.1-0.1,6.5,1.2,11c1.3,4.5,2.6,4.7,3.3,5.6c0.7,1,0.7,4.9,2.1,6.4
		c0.2,0.2,0.5,0.6,0.9,1l0.3,3.1l0.4,1.7c-0.2-0.5-0.6-0.8-0.8-0.2c-0.6,1.7-1.1,3.4-1.7,5.1c-0.1-0.1-0.1-0.1-0.3-0.1
		c-0.5-0.5-1.3-0.1-1.9,1c-1,1.6-4.3,4-8,5.7l-0.1,0.2l-0.1,0.2l0,0.1c-0.3,0.1-0.6,0.3-0.9,0.4l-20,8c-4.3,1.7-7.9,1.8-7.9,6.9
		l-3.3,17.4h120L-76.4,41.2L-76.4,41.2z"/>
</g>
</svg>
