<?xml version="1.0" encoding="utf-8"?>
<!-- Generator: Adobe Illustrator 18.1.1, SVG Export Plug-In . SVG Version: 6.00 Build 0)  -->
<svg version="1.1" id="Layer_1" xmlns="http://www.w3.org/2000/svg" xmlns:xlink="http://www.w3.org/1999/xlink" x="0px" y="0px"
	 viewBox="0 0 20 17.5" style="enable-background:new 0 0 20 17.5;" xml:space="preserve">
<style type="text/css">
	.st0{fill-rule:evenodd;clip-rule:evenodd;fill:#FFFFFF;}
	.st1{fill:#FFFFFF;}
	.st2{fill:#00ACCD;}
	.st3{fill:#B3B3B3;}
	.st4{fill:#006472;}
	.st5{fill:#E5E5E5;}
	.st6{fill:#003239;}
	.st7{fill:#FFCC00;}
	.st8{fill:#FF3300;}
	.st9{fill:#F7921E;}
	.st10{fill:#646464;}
</style>
<g>
	<polygon class="st10" points="11.9,9.1 11.9,9.1 11.9,9.1 	"/>
	<path class="st10" d="M19.3,5.5l-6.6-5.3c-0.9-0.5-1.9,0-1.9,1.1v1.9C8.8,3.3,0,4.8,0,16.8c0,0.3,0.2,0.6,0.6,0.7c0,0,0.1,0,0.1,0
		c0.3,0,0.5-0.2,0.6-0.5c2.1-6.3,7.9-7.1,9.5-7.3v2.2c0,0.8,0.5,1.3,1.1,1.3c0.2,0,0.5-0.1,0.7-0.2l6.6-5.3C19.8,7.3,20,7.1,20,6.6
		C20,6.2,19.8,5.9,19.3,5.5z M18.7,6.8l-6.6,5.3c-0.1,0.1-0.2,0.1-0.2,0.1l0,0c0,0,0-0.1,0-0.2V9.1v0c0-0.4-0.3-0.7-0.7-0.7
		c0,0-0.2,0-0.4,0c-1.4,0.1-6.2,0.8-9.2,5c1.4-7.8,7.5-8.9,9.2-9c0.2,0,0.4,0,0.4,0c0.4,0,0.7-0.3,0.7-0.7V1.3c0-0.1,0-0.2,0.1-0.2
		c0,0,0.1,0,0.2,0.1l6.6,5.3c0.1,0.1,0.2,0.1,0.2,0.1C18.9,6.6,18.9,6.7,18.7,6.8z"/>
</g>
</svg>
