<?xml version="1.0" encoding="utf-8"?>
<!-- Generator: Adobe Illustrator 18.1.0, SVG Export Plug-In . SVG Version: 6.00 Build 0)  -->
<svg version="1.1" id="Layer_1" xmlns="http://www.w3.org/2000/svg" xmlns:xlink="http://www.w3.org/1999/xlink" x="0px" y="0px"
	 viewBox="0 0 30 19.2" style="enable-background:new 0 0 30 19.2;" xml:space="preserve">
<style type="text/css">
	.st0{fill-rule:evenodd;clip-rule:evenodd;fill:#FFFFFF;}
	.st1{fill:#FFFFFF;}
	.st2{fill:#00ACCD;}
	.st3{fill:#B3B3B3;}
	.st4{fill:#006472;}
	.st5{fill:#E5E5E5;}
	.st6{fill:#003239;}
	.st7{fill:#FFCC00;}
	.st8{fill:#FF3300;}
	.st9{fill:#F7921E;}
	.st10{fill:#646464;}
</style>
<g>
	<path class="st2" d="M30,0.5c0-0.1,0-0.1-0.1-0.2c0-0.1,0-0.1,0-0.2c0,0,0,0,0,0c0-0.1-0.1-0.1-0.2-0.1c-0.1,0-0.1-0.1-0.2-0.1
		c0,0,0,0,0,0H0.5c0,0,0,0,0,0c-0.1,0-0.1,0-0.2,0.1c-0.1,0-0.1,0-0.2,0.1c0,0,0,0,0,0c0,0.1,0,0.1,0,0.2C0,0.4,0,0.5,0,0.5v18.1
		c0,0.1,0,0.1,0.1,0.2c0,0.1,0,0.1,0,0.2c0,0,0,0,0,0c0.1,0.1,0.2,0.2,0.4,0.2h28.9c0.2,0,0.3-0.1,0.4-0.2c0,0,0,0,0,0
		c0,0,0-0.1,0-0.2c0-0.1,0.1-0.1,0.1-0.2V0.5z M1.1,1.6l10.2,7.9L1.1,17.5V1.6z M17.5,9.1C17.5,9.1,17.5,9.1,17.5,9.1L15.1,11
		L15,11.1L14.9,11l-2.4-1.8c0,0,0,0,0,0L2.1,1.1h25.8L17.5,9.1z M12.2,10.3l2.5,1.9c0.1,0,0.1,0,0.2,0.1c0,0,0.1,0,0.1,0
		c0,0,0,0,0,0c0,0,0,0,0,0c0,0,0.1,0,0.1,0c0.1,0,0.1,0,0.2-0.1l2.5-1.9l10.1,7.8H2.1L12.2,10.3z M18.7,9.6l10.2-7.9v15.9L18.7,9.6z
		"/>
</g>
</svg>
