<?xml version="1.0" encoding="utf-8"?>
<!-- Generator: Adobe Illustrator 18.1.0, SVG Export Plug-In . SVG Version: 6.00 Build 0)  -->
<svg version="1.1" id="Layer_1" xmlns="http://www.w3.org/2000/svg" xmlns:xlink="http://www.w3.org/1999/xlink" x="0px" y="0px"
	 viewBox="0 0 20.3 30" style="enable-background:new 0 0 20.3 30;" xml:space="preserve">
<style type="text/css">
	.st0{fill-rule:evenodd;clip-rule:evenodd;fill:#FFFFFF;}
	.st1{fill:#FFFFFF;}
	.st2{fill:#00ACCD;}
	.st3{fill:#B3B3B3;}
	.st4{fill:#006472;}
	.st5{fill:#E5E5E5;}
	.st6{fill:#003239;}
	.st7{fill:#FFCC00;}
	.st8{fill:#FF3300;}
	.st9{fill:#F7921E;}
	.st10{fill:#646464;}
</style>
<path class="st1" d="M19.8,24.3c0.3,0,0.5-0.2,0.5-0.5c0,0,0,0,0-0.1V0.5c0-0.3-0.2-0.5-0.5-0.5H3.4C1.5,0,0,1.5,0,3.4v23.2
	C0,28.5,1.5,30,3.4,30h16.4c0.3,0,0.5-0.2,0.5-0.5c0-0.3-0.2-0.5-0.5-0.5c-1.3,0-2.3-1-2.3-2.3C17.5,25.3,18.5,24.3,19.8,24.3z
	 M1.1,3.4c0-1.1,0.8-2,1.8-2.3v22.1c-0.7,0.1-1.3,0.4-1.8,0.9V3.4z M17.3,28.9H3.4c-1.3,0-2.3-1.1-2.3-2.3c0-1.3,1.1-2.3,2.3-2.3
	h13.9c-0.6,0.6-0.9,1.4-0.9,2.4C16.4,27.5,16.7,28.3,17.3,28.9z M4,23.2V1.1h15.3v22.1H4z"/>
</svg>
