<?xml version="1.0" encoding="utf-8"?>
<!-- Generator: Adobe Illustrator 16.0.0, SVG Export Plug-In . SVG Version: 6.00 Build 0)  -->
<!DOCTYPE svg PUBLIC "-//W3C//DTD SVG 1.1//EN" "http://www.w3.org/Graphics/SVG/1.1/DTD/svg11.dtd">
<svg version="1.1" id="Layer_1" xmlns="http://www.w3.org/2000/svg" xmlns:xlink="http://www.w3.org/1999/xlink" x="0px" y="0px"
	 width="612px" height="792px" viewBox="0 0 612 792" enable-background="new 0 0 612 792" xml:space="preserve">
<path fill="#94C72F" d="M560.76,641.52c7.92,0,13.2-5.279,13.2-13.199c0,0,0,0,0-2.641V13.2c0-7.92-5.28-13.2-13.2-13.2H127.8
	C77.64,0,38.04,39.6,38.04,89.76v612.48c0,50.16,39.6,89.76,89.76,89.76h432.96c7.92,0,13.2-5.28,13.2-13.2s-5.28-13.2-13.2-13.2
	c-34.319,0-60.72-26.399-60.72-60.72C500.04,667.92,526.44,641.52,560.76,641.52z M67.08,89.76c0-29.04,21.12-52.8,47.52-60.72
	v583.44c-18.48,2.64-34.32,10.56-47.52,23.76V89.76z M494.76,762.96H127.8c-34.32,0-60.72-29.04-60.72-60.72
	c0-34.32,29.04-60.721,60.72-60.721h366.96C478.92,657.36,471,678.48,471,704.88C471,726,478.92,747.12,494.76,762.96z
	 M143.64,612.48V29.04H547.56v583.44H143.64z"/>
</svg>
