<?xml version="1.0" encoding="utf-8"?>
<!-- Generator: Adobe Illustrator 16.0.0, SVG Export Plug-In . SVG Version: 6.00 Build 0)  -->
<!DOCTYPE svg PUBLIC "-//W3C//DTD SVG 1.1//EN" "http://www.w3.org/Graphics/SVG/1.1/DTD/svg11.dtd">
<svg version="1.1" id="Layer_1" xmlns="http://www.w3.org/2000/svg" xmlns:xlink="http://www.w3.org/1999/xlink" x="0px" y="0px"
	 width="612px" height="792px" viewBox="0 0 612 792" enable-background="new 0 0 612 792" xml:space="preserve">
<g>
	<path fill="#94C72F" d="M432.48,255.24L250.92,332.76c-2.04,2.04-4.08,4.08-6.12,6.12L167.28,520.44
		c-2.04,4.079,0,8.159,2.04,12.239c2.04,2.04,4.08,4.08,8.16,4.08c2.04,0,2.04,0,4.08,0l181.56-77.52c2.04-2.04,4.08-4.08,6.12-6.12
		l77.52-181.56c2.04-4.08,0-8.16-2.04-12.24C440.64,255.24,436.56,253.2,432.48,255.24z M195.84,506.16l61.2-142.8l81.6,81.6
		L195.84,506.16z M354.96,428.64l-81.6-81.6l142.8-61.2L354.96,428.64z"/>
	<path fill="#94C72F" d="M306,90C136.68,90,0,226.68,0,396c0,169.32,136.68,306,306,306c169.32,0,306-136.68,306-306
		C612,226.68,475.32,90,306,90z M306,679.56C148.92,679.56,22.44,553.08,22.44,396S148.92,112.44,306,112.44
		S589.56,238.92,589.56,396S463.08,679.56,306,679.56z"/>
	<path fill="#94C72F" d="M306,171.6c8.16,0,16.32-6.12,16.32-16.32c0-8.16-6.12-16.32-16.32-16.32c-8.16,0-16.32,6.12-16.32,16.32
		C289.68,165.48,297.84,171.6,306,171.6z M306,149.16c4.08,0,6.12,2.04,6.12,6.12c0,8.16-12.24,8.16-12.24,0
		C299.88,153.24,301.92,149.16,306,149.16z"/>
	<path fill="#94C72F" d="M306,620.4c-8.16,0-16.32,6.119-16.32,16.319c0,8.16,6.12,16.32,16.32,16.32c8.16,0,16.32-6.12,16.32-16.32
		S314.16,620.4,306,620.4z M299.88,634.68c0-4.08,2.04-6.12,6.12-6.12s6.12,2.04,6.12,6.12
		C312.12,642.84,299.88,642.84,299.88,634.68z"/>
	<path fill="#94C72F" d="M544.68,379.68c-8.16,0-16.319,6.12-16.319,16.32c0,8.16,6.12,16.32,16.319,16.32
		c8.16,0,16.32-6.12,16.32-16.32C561,387.84,554.88,379.68,544.68,379.68z M538.56,396c0-4.08,2.04-6.12,6.12-6.12
		s6.12,2.04,6.12,6.12C552.84,404.16,538.56,404.16,538.56,396z"/>
	<path fill="#94C72F" d="M67.32,379.68C59.16,379.68,51,385.8,51,396c0,8.16,6.12,16.32,16.32,16.32c8.16,0,14.28-8.16,14.28-16.32
		S75.48,379.68,67.32,379.68z M59.16,396c0-4.08,2.04-6.12,6.12-6.12c4.08,0,6.12,2.04,6.12,6.12
		C73.44,404.16,59.16,404.16,59.16,396z"/>
</g>
</svg>
