<?xml version="1.0" encoding="utf-8"?>
<!-- Generator: Adobe Illustrator 16.0.0, SVG Export Plug-In . SVG Version: 6.00 Build 0)  -->
<!DOCTYPE svg PUBLIC "-//W3C//DTD SVG 1.1//EN" "http://www.w3.org/Graphics/SVG/1.1/DTD/svg11.dtd" [
	<!ENTITY ns_flows "http://ns.adobe.com/Flows/1.0/">
	<!ENTITY ns_extend "http://ns.adobe.com/Extensibility/1.0/">
	<!ENTITY ns_ai "http://ns.adobe.com/AdobeIllustrator/10.0/">
	<!ENTITY ns_graphs "http://ns.adobe.com/Graphs/1.0/">
	<!ENTITY ns_vars "http://ns.adobe.com/Variables/1.0/">
	<!ENTITY ns_imrep "http://ns.adobe.com/ImageReplacement/1.0/">
	<!ENTITY ns_sfw "http://ns.adobe.com/SaveForWeb/1.0/">
	<!ENTITY ns_custom "http://ns.adobe.com/GenericCustomNamespace/1.0/">
	<!ENTITY ns_adobe_xpath "http://ns.adobe.com/XPath/1.0/">
]>
<svg version="1.1" id="Layer_1" xmlns:x="&ns_extend;" xmlns:i="&ns_ai;" xmlns:graph="&ns_graphs;"
	 xmlns="http://www.w3.org/2000/svg" xmlns:xlink="http://www.w3.org/1999/xlink" xmlns:a="http://ns.adobe.com/AdobeSVGViewerExtensions/3.0/"
	 x="0px" y="0px" width="612px" height="792px" viewBox="0 0 612 792" enable-background="new 0 0 612 792" xml:space="preserve">
<metadata>
	<sfw  xmlns="&ns_sfw;">
		<slices></slices>
		<sliceSourceBounds  width="611.678" height="646.934" y="73.033" x="-0.339" bottomLeftOrigin="true"></sliceSourceBounds>
	</sfw>
</metadata>
<g>
	<g>
		<path fill="#0F6292" d="M595.826,298.96c-2.587-7.763-10.351-11.645-18.113-9.057c-7.764,2.587-11.646,10.998-9.058,18.114
			c33.641,100.921,8.41,210.253-65.987,284.651c-108.685,108.038-284.651,108.686-393.336,0c-3.235-3.234-5.176-6.47-7.763-9.704
			h100.275c7.763,0,14.232-6.469,14.232-14.232c0-7.763-6.469-14.232-14.232-14.232H51.108v150.735
			c0,7.764,6.469,14.232,14.232,14.232s14.232-6.469,14.232-14.232V601.726c3.235,3.881,5.823,7.116,9.704,10.997
			c59.518,59.519,138.444,89.924,216.723,89.924s157.205-29.759,216.723-89.924C604.884,530.563,632.702,410.232,595.826,298.96z"/>
		<path fill="#0F6292" d="M109.332,199.332c108.685-108.685,284.651-108.685,392.689,0c3.234,3.234,5.175,6.469,7.763,9.704H409.51
			c-7.764,0-14.232,6.469-14.232,14.232s6.469,14.232,14.232,14.232h150.735V86.765c0-7.763-6.47-14.232-14.232-14.232
			c-7.764,0-14.232,6.469-14.232,14.232v102.863c-3.235-3.882-5.822-7.116-9.704-10.998C403.04,59.594,208.96,59.594,89.277,179.277
			C7.116,261.438-20.702,381.768,16.173,493.04c1.941,5.822,7.763,9.704,13.585,9.704c1.294,0,3.235,0,4.529-0.646
			c7.763-2.588,11.645-10.998,9.057-18.114C9.704,383.062,34.935,273.729,109.332,199.332z"/>
	</g>
	<g>
		<path fill="#0F6292" d="M403.04,313.192L403.04,313.192l-65.987-66.634c-0.646-0.647-1.94-1.294-3.234-1.294H212.194
			c-2.587,0-5.175,1.941-5.175,5.176v265.89c0,2.588,1.941,5.175,5.175,5.175h187.611c2.588,0,5.175-1.94,5.175-5.175V316.427
			C404.98,315.133,404.334,313.839,403.04,313.192z M338.347,262.084l49.814,49.814h-49.814V262.084z M394.63,510.508H216.723
			v-255.54h111.273v61.459c0,2.587,1.94,5.175,5.175,5.175h61.459V510.508z"/>
		<path fill="#0F6292" d="M240.013,362.359c0,2.588,1.941,5.175,5.175,5.175h121.624c2.588,0,5.176-1.94,5.176-5.175
			c0-2.588-1.94-5.175-5.176-5.175H245.188C242.601,357.184,240.013,359.771,240.013,362.359z"/>
		<path fill="#0F6292" d="M366.812,393.412H245.188c-2.587,0-5.175,1.941-5.175,5.176c0,2.588,1.941,5.176,5.175,5.176h121.624
			c2.588,0,5.176-1.941,5.176-5.176C371.341,395.353,369.399,393.412,366.812,393.412z"/>
		<path fill="#0F6292" d="M366.812,429.641H245.188c-2.587,0-5.175,1.94-5.175,5.176c0,2.588,1.941,5.175,5.175,5.175h121.624
			c2.588,0,5.176-1.94,5.176-5.175C371.341,431.581,369.399,429.641,366.812,429.641z"/>
		<path fill="#0F6292" d="M366.812,465.222H245.188c-2.587,0-5.175,1.941-5.175,5.176c0,2.588,1.941,5.176,5.175,5.176h121.624
			c2.588,0,5.176-1.941,5.176-5.176C371.341,467.163,369.399,465.222,366.812,465.222z"/>
	</g>
</g>
</svg>
