<?xml version="1.0" encoding="utf-8"?>
<!-- Generator: Adobe Illustrator 18.1.0, SVG Export Plug-In . SVG Version: 6.00 Build 0)  -->
<svg version="1.1" id="Layer_1" xmlns="http://www.w3.org/2000/svg" xmlns:xlink="http://www.w3.org/1999/xlink" x="0px" y="0px"
	 viewBox="0 0 25 22" style="enable-background:new 0 0 25 22;" xml:space="preserve">
<style type="text/css">
	.st0{fill-rule:evenodd;clip-rule:evenodd;fill:#FFFFFF;}
	.st1{fill:#FFFFFF;}
	.st2{fill:#00ACCD;}
	.st3{fill:#B3B3B3;}
	.st4{fill:#006472;}
	.st5{fill:#E5E5E5;}
	.st6{fill:#003239;}
	.st7{fill:#FFCC00;}
	.st8{fill:#FF3300;}
	.st9{fill:#F7921E;}
	.st10{fill:#646464;}
</style>
<path class="st2" d="M24.6,3h-5.9l-2.9-2.9C15.7,0,15.6,0,15.5,0H3.4C3.3,0,3.2,0,3.1,0.1l-3,3C0,3.2,0,3.3,0,3.4v18.2
	C0,21.8,0.2,22,0.4,22h24.2c0.2,0,0.4-0.2,0.4-0.4V3.4C25,3.2,24.8,3,24.6,3z M3.6,0.8h11.8l2.9,2.9c0.1,0.1,0.2,0.1,0.3,0.1h5.7
	v1.5H0.8V3.6L3.6,0.8z M0.8,21.2v-15h23.4v15H0.8z"/>
</svg>
