<?xml version="1.0" encoding="utf-8"?>
<!-- Generator: Adobe Illustrator 18.1.0, SVG Export Plug-In . SVG Version: 6.00 Build 0)  -->
<svg version="1.1" id="Layer_1" xmlns="http://www.w3.org/2000/svg" xmlns:xlink="http://www.w3.org/1999/xlink" x="0px" y="0px"
	 viewBox="0 0 30 30" style="enable-background:new 0 0 30 30;" xml:space="preserve">
<style type="text/css">
	.st0{fill-rule:evenodd;clip-rule:evenodd;fill:#FFFFFF;}
	.st1{fill:#FFFFFF;}
	.st2{fill:#00ACCD;}
	.st3{fill:#B3B3B3;}
	.st4{fill:#006472;}
	.st5{fill:#E5E5E5;}
	.st6{fill:#003239;}
	.st7{fill:#FFCC00;}
	.st8{fill:#FF3300;}
	.st9{fill:#F7921E;}
	.st10{fill:#646464;}
</style>
<g>
	<path class="st1" d="M15,30C6.7,30,0,23.3,0,15S6.7,0,15,0c8.3,0,15,6.7,15,15S23.3,30,15,30z M15,1.1C7.3,1.1,1.1,7.3,1.1,15
		S7.3,28.9,15,28.9c7.7,0,13.9-6.2,13.9-13.9S22.7,1.1,15,1.1z"/>
	<g>
		<path class="st1" d="M15.5,16l-0.2,2.8l-1.6,0.4l-0.4-4.6l1.1-0.5c2.6-1.1,3.8-2,3.8-3.8c0-1.7-1.4-2.7-3.2-2.7
			c-2.2,0-3.9,1-5.4,2.2L9.2,7.3c1.7-1.3,3.7-2.1,5.9-2.1c3.4,0,5.7,1.9,5.7,4.9C20.8,13.2,18.8,14.5,15.5,16z M13.1,24.8v-3.3h2.8
			v3.3H13.1z"/>
	</g>
</g>
</svg>
