<?xml version="1.0" encoding="utf-8"?>
<!-- Generator: Adobe Illustrator 18.1.0, SVG Export Plug-In . SVG Version: 6.00 Build 0)  -->
<svg version="1.1" id="Layer_1" xmlns="http://www.w3.org/2000/svg" xmlns:xlink="http://www.w3.org/1999/xlink" x="0px" y="0px"
	 viewBox="0 0 17.9 25" style="enable-background:new 0 0 17.9 25;" xml:space="preserve">
<style type="text/css">
	.st0{fill-rule:evenodd;clip-rule:evenodd;fill:#FFFFFF;}
	.st1{fill:#FFFFFF;}
	.st2{fill:#00ACCD;}
	.st3{fill:#B3B3B3;}
	.st4{fill:#006472;}
	.st5{fill:#E5E5E5;}
	.st6{fill:#003239;}
	.st7{fill:#FFCC00;}
	.st8{fill:#FF3300;}
	.st9{fill:#F7921E;}
	.st10{fill:#646464;}
</style>
<g>
	<path class="st2" d="M17.8,6.2L17.8,6.2l-6-6C11.7,0,11.6,0,11.5,0h-11C0.2,0,0,0.2,0,0.4v24.1C0,24.8,0.2,25,0.4,25h17
		c0.2,0,0.4-0.2,0.4-0.4V6.5C17.9,6.3,17.9,6.2,17.8,6.2z M11.9,1.5L16.4,6h-4.5V1.5z M17,24.1H0.9V0.9H11v5.6
		c0,0.2,0.2,0.4,0.4,0.4H17V24.1z"/>
	<path class="st2" d="M3,10.6c0,0.2,0.2,0.4,0.4,0.4h11c0.2,0,0.4-0.2,0.4-0.4c0-0.2-0.2-0.4-0.4-0.4h-11C3.2,10.2,3,10.4,3,10.6z"
		/>
	<path class="st2" d="M14.5,13.5h-11c-0.2,0-0.4,0.2-0.4,0.4c0,0.2,0.2,0.4,0.4,0.4h11c0.2,0,0.4-0.2,0.4-0.4
		C14.9,13.7,14.7,13.5,14.5,13.5z"/>
	<path class="st2" d="M14.5,16.7h-11c-0.2,0-0.4,0.2-0.4,0.4c0,0.2,0.2,0.4,0.4,0.4h11c0.2,0,0.4-0.2,0.4-0.4
		C14.9,16.9,14.7,16.7,14.5,16.7z"/>
	<path class="st2" d="M14.5,20h-11C3.2,20,3,20.2,3,20.4c0,0.2,0.2,0.4,0.4,0.4h11c0.2,0,0.4-0.2,0.4-0.4C14.9,20.2,14.7,20,14.5,20
		z"/>
</g>
</svg>
