<?xml version="1.0" encoding="utf-8"?>
<!-- Generator: Adobe Illustrator 18.1.0, SVG Export Plug-In . SVG Version: 6.00 Build 0)  -->
<svg version="1.1" id="Layer_1" xmlns="http://www.w3.org/2000/svg" xmlns:xlink="http://www.w3.org/1999/xlink" x="0px" y="0px"
	 viewBox="0 0 20 17.4" style="enable-background:new 0 0 20 17.4;" xml:space="preserve">
<style type="text/css">
	.st0{fill-rule:evenodd;clip-rule:evenodd;fill:#FFFFFF;}
	.st1{fill:#FFFFFF;}
	.st2{fill:#00ACCD;}
	.st3{fill:#B3B3B3;}
	.st4{fill:#006472;}
	.st5{fill:#E5E5E5;}
	.st6{fill:#003239;}
	.st7{fill:#FFCC00;}
	.st8{fill:#FF3300;}
	.st9{fill:#F7921E;}
	.st10{fill:#646464;}
</style>
<g>
	<g>
		<path class="st1" d="M2.9,0L18,0c1.1,0,2,0.9,2,2v11.9c0,1.1-0.9,2-2,2H8.8c-0.3,0-0.6-0.3-0.6-0.6s0.3-0.6,0.6-0.6H18
			c0.5,0,0.9-0.4,0.9-0.9V2c0-0.5-0.4-0.9-0.9-0.9H2.9C2.4,1.1,2,1.5,2,2v6c0,0.3-0.3,0.6-0.6,0.6S0.9,8.3,0.9,8V2
			C0.9,0.9,1.8,0,2.9,0z"/>
	</g>
	<path class="st1" d="M0.6,17.4h4.6c0.3,0,0.6-0.3,0.6-0.6c0-0.3-0.3-0.6-0.6-0.6H1.9l8-8c0.2-0.2,0.2-0.6,0-0.8
		C9.8,7.4,9.6,7.4,9.5,7.4c-0.1,0-0.3,0.1-0.4,0.2l-8,8v-3.2c0-0.3-0.3-0.6-0.6-0.6C0.3,11.8,0,12,0,12.3l0,4.6
		C0,17.2,0.3,17.4,0.6,17.4z"/>
</g>
</svg>
