<?xml version="1.0" encoding="utf-8"?>
<!-- Generator: Adobe Illustrator 18.1.0, SVG Export Plug-In . SVG Version: 6.00 Build 0)  -->
<svg version="1.1" id="Layer_1" xmlns="http://www.w3.org/2000/svg" xmlns:xlink="http://www.w3.org/1999/xlink" x="0px" y="0px"
	 viewBox="0 0 30 30" style="enable-background:new 0 0 30 30;" xml:space="preserve">
<style type="text/css">
	.st0{fill-rule:evenodd;clip-rule:evenodd;fill:#FFFFFF;}
	.st1{fill:#FFFFFF;}
	.st2{fill:#00ACCD;}
	.st3{fill:#B3B3B3;}
	.st4{fill:#006472;}
	.st5{fill:#E5E5E5;}
	.st6{fill:#003239;}
	.st7{fill:#FFCC00;}
	.st8{fill:#FF3300;}
	.st9{fill:#F7921E;}
	.st10{fill:#646464;}
</style>
<g>
	<path class="st1" d="M21.2,8.1l-8.9,3.8c-0.1,0.1-0.2,0.2-0.3,0.3l-3.8,8.9c-0.1,0.2,0,0.4,0.1,0.6c0.1,0.1,0.2,0.2,0.4,0.2
		c0.1,0,0.1,0,0.2,0l8.9-3.8c0.1-0.1,0.2-0.2,0.3-0.3l3.8-8.9c0.1-0.2,0-0.4-0.1-0.6C21.6,8.1,21.4,8,21.2,8.1z M9.6,20.4l3-7l4,4
		L9.6,20.4z M17.4,16.6l-4-4l7-3L17.4,16.6z"/>
	<path class="st1" d="M15,0C6.7,0,0,6.7,0,15c0,8.3,6.7,15,15,15c8.3,0,15-6.7,15-15C30,6.7,23.3,0,15,0z M15,28.9
		C7.3,28.9,1.1,22.7,1.1,15C1.1,7.3,7.3,1.1,15,1.1c7.7,0,13.9,6.2,13.9,13.9C28.9,22.7,22.7,28.9,15,28.9z"/>
	<path class="st1" d="M15,4c0.4,0,0.8-0.3,0.8-0.8c0-0.4-0.3-0.8-0.8-0.8c-0.4,0-0.8,0.3-0.8,0.8C14.2,3.7,14.6,4,15,4z M15,2.9
		c0.2,0,0.3,0.1,0.3,0.3c0,0.4-0.6,0.4-0.6,0C14.7,3.1,14.8,2.9,15,2.9z"/>
	<path class="st1" d="M15,26c-0.4,0-0.8,0.3-0.8,0.8c0,0.4,0.3,0.8,0.8,0.8c0.4,0,0.8-0.3,0.8-0.8C15.8,26.3,15.4,26,15,26z
		 M14.7,26.7c0-0.2,0.1-0.3,0.3-0.3c0.2,0,0.3,0.1,0.3,0.3C15.3,27.1,14.7,27.1,14.7,26.7z"/>
	<path class="st1" d="M26.7,14.2c-0.4,0-0.8,0.3-0.8,0.8c0,0.4,0.3,0.8,0.8,0.8c0.4,0,0.8-0.3,0.8-0.8
		C27.5,14.6,27.2,14.2,26.7,14.2z M26.4,15c0-0.2,0.1-0.3,0.3-0.3c0.2,0,0.3,0.1,0.3,0.3C27.1,15.4,26.4,15.4,26.4,15z"/>
	<path class="st1" d="M3.3,14.2c-0.4,0-0.8,0.3-0.8,0.8c0,0.4,0.3,0.8,0.8,0.8C3.7,15.8,4,15.4,4,15C4,14.6,3.7,14.2,3.3,14.2z
		 M2.9,15c0-0.2,0.1-0.3,0.3-0.3c0.2,0,0.3,0.1,0.3,0.3C3.6,15.4,2.9,15.4,2.9,15z"/>
</g>
</svg>
