<?xml version="1.0" encoding="utf-8"?>
<!-- Generator: Adobe Illustrator 16.0.0, SVG Export Plug-In . SVG Version: 6.00 Build 0)  -->
<!DOCTYPE svg PUBLIC "-//W3C//DTD SVG 1.1//EN" "http://www.w3.org/Graphics/SVG/1.1/DTD/svg11.dtd">
<svg version="1.1" id="Layer_1" xmlns="http://www.w3.org/2000/svg" xmlns:xlink="http://www.w3.org/1999/xlink" x="0px" y="0px"
	 width="612px" height="792px" viewBox="0 0 612 792" enable-background="new 0 0 612 792" xml:space="preserve">
<g>
	<path fill="#94C72F" d="M587.16,195.36L587.16,195.36L397.08,5.28C391.8,2.64,389.16,0,386.52,0H35.4c-7.92,0-13.2,5.28-13.2,13.2
		v762.96c0,10.56,5.28,15.84,13.2,15.84h541.2c7.92,0,13.2-5.28,13.2-13.2V205.92C589.8,200.64,589.8,198,587.16,195.36z
		 M399.72,47.52L542.28,190.08H399.72V47.52L399.72,47.52z M563.4,762.96H51.24V29.04H370.68v176.88c0,7.92,5.28,13.2,13.2,13.2
		h176.88v543.84H563.4z"/>
	<path fill="#94C72F" d="M117.24,337.92c0,7.92,5.28,13.2,13.2,13.2h348.48c7.92,0,13.2-5.28,13.2-13.2s-5.28-13.2-13.2-13.2H133.08
		C125.16,322.08,117.24,330,117.24,337.92z"/>
	<path fill="#94C72F" d="M481.56,427.68H133.08c-7.92,0-13.2,5.28-13.2,13.2s5.28,13.2,13.2,13.2H481.56
		c7.921,0,13.2-5.28,13.2-13.2S489.48,427.68,481.56,427.68z"/>
	<path fill="#94C72F" d="M481.56,530.64H133.08c-7.92,0-13.2,5.28-13.2,13.2s5.28,13.2,13.2,13.2H481.56
		c7.921,0,13.2-5.28,13.2-13.2S489.48,530.64,481.56,530.64z"/>
	<path fill="#94C72F" d="M481.56,633.6H133.08c-7.92,0-13.2,5.28-13.2,13.2s5.28,13.2,13.2,13.2H481.56c7.921,0,13.2-5.28,13.2-13.2
		S489.48,633.6,481.56,633.6z"/>
</g>
</svg>
