<?xml version="1.0" encoding="utf-8"?>
<!-- Generator: Adobe Illustrator 18.1.0, SVG Export Plug-In . SVG Version: 6.00 Build 0)  -->
<svg version="1.1" id="Layer_1" xmlns="http://www.w3.org/2000/svg" xmlns:xlink="http://www.w3.org/1999/xlink" x="0px" y="0px"
	 viewBox="0 0 30 30" style="enable-background:new 0 0 30 30;" xml:space="preserve">
<style type="text/css">
	.st0{fill-rule:evenodd;clip-rule:evenodd;fill:#FFFFFF;}
	.st1{fill:#FFFFFF;}
	.st2{fill:#00ACCD;}
	.st3{fill:#B3B3B3;}
	.st4{fill:#006472;}
	.st5{fill:#E5E5E5;}
	.st6{fill:#003239;}
	.st7{fill:#FFCC00;}
	.st8{fill:#FF3300;}
	.st9{fill:#F7921E;}
	.st10{fill:#646464;}
</style>
<g id="user_1_">
	<path class="st1" d="M29.2,30H0.8C0.3,30,0,29.5,0,29.1v-3.3c0-1.4,0.2-2.2,1.5-3c2.3-1.4,6.3-3.7,8.6-4.8v-4.4
		c-0.8-0.7-1.3-1.8-1.3-3.2V6.4C8.8,2.5,11.3,0,15,0c3.7,0,6.2,2.5,6.2,6.4v3.9c0,1.4-0.4,2.4-1.3,3.2V18c2.5,1.1,6.8,3.7,8.2,4.6
		l0.4,0.2c1.3,0.7,1.5,1.6,1.5,3v3.3C30,29.5,29.7,30,29.2,30z M1,29H29l0-3.3c0-1.3-0.2-1.7-1-2.1l-0.4-0.2c-1.5-0.9-6-3.6-8.4-4.6
		l-0.3-0.1v-5.5l0.2-0.1c0.7-0.6,1.1-1.4,1.1-2.6V6.4C20.2,3.8,18.8,1,15,1c-3.8,0-5.2,2.8-5.2,5.5v3.9c0,1.2,0.4,2,1.1,2.6l0.2,0.1
		v5.5l-0.3,0.1C9.2,19.4,6,21.2,2,23.6C1.2,24.1,1,24.5,1,25.8V29z"/>
</g>
</svg>
