<?xml version="1.0" encoding="utf-8"?>
<!-- Generator: Adobe Illustrator 16.0.0, SVG Export Plug-In . SVG Version: 6.00 Build 0)  -->
<!DOCTYPE svg PUBLIC "-//W3C//DTD SVG 1.1//EN" "http://www.w3.org/Graphics/SVG/1.1/DTD/svg11.dtd">
<svg version="1.1" id="Layer_1" xmlns="http://www.w3.org/2000/svg" xmlns:xlink="http://www.w3.org/1999/xlink" x="0px" y="0px"
	 width="612px" height="792px" viewBox="0 0 612 792" enable-background="new 0 0 612 792" xml:space="preserve">
<g>
	<path fill="#94C72F" d="M306,702C136.68,702,0,565.32,0,396C0,226.68,136.68,90,306,90c169.32,0,306,136.68,306,306
		C612,565.32,475.32,702,306,702z M306,112.44C148.92,112.44,22.44,238.92,22.44,396S148.92,679.56,306,679.56
		S589.56,553.08,589.56,396S463.08,112.44,306,112.44z"/>
	<g>
		<path fill="#94C72F" d="M316.2,416.4l-4.08,57.119l-32.64,8.16l-8.16-93.84l22.44-10.2c53.04-22.44,77.521-40.8,77.521-77.52
			c0-34.68-28.561-55.08-65.28-55.08c-44.88,0-79.56,20.4-110.16,44.88l-8.16-51c34.68-26.52,75.48-42.84,120.36-42.84
			c69.36,0,116.28,38.76,116.28,99.96C424.32,359.28,383.52,385.8,316.2,416.4z M267.24,595.92V528.6h57.12v67.32H267.24z"/>
	</g>
</g>
</svg>
