<?xml version="1.0" encoding="utf-8"?>
<!-- Generator: Adobe Illustrator 16.0.0, SVG Export Plug-In . SVG Version: 6.00 Build 0)  -->
<!DOCTYPE svg PUBLIC "-//W3C//DTD SVG 1.1//EN" "http://www.w3.org/Graphics/SVG/1.1/DTD/svg11.dtd">
<svg version="1.1" id="Layer_1" xmlns="http://www.w3.org/2000/svg" xmlns:xlink="http://www.w3.org/1999/xlink" x="0px" y="0px"
	 width="612px" height="792px" viewBox="0 0 612 792" enable-background="new 0 0 612 792" xml:space="preserve">
<g id="user_2_">
	<path fill="#94C72F" d="M595.68,702H16.32C6.12,702,0,691.8,0,683.64V616.32c0-28.561,4.08-44.88,30.6-61.2
		c46.92-28.561,128.52-75.48,175.44-97.92v-89.76c-16.32-14.28-26.52-36.72-26.52-65.28v-81.6C179.52,141,230.52,90,306,90
		c75.48,0,126.48,51,126.48,130.56v79.56c0,28.56-8.16,48.96-26.521,65.28v91.8c51,22.439,138.72,75.479,167.28,93.84l8.16,4.08
		c26.52,14.28,30.6,32.64,30.6,61.2v67.319C612,691.8,605.88,702,595.68,702z M20.4,681.6h571.2V614.28
		c0-26.521-4.08-34.681-20.399-42.84l-8.16-4.08c-30.6-18.36-122.4-73.44-171.36-93.841l-6.12-2.039V359.28l4.08-2.04
		c14.28-12.24,22.44-28.56,22.44-53.04v-83.64c0-53.04-28.561-110.16-106.08-110.16c-77.52,0-106.08,57.12-106.08,112.2v79.56
		c0,24.48,8.16,40.8,22.44,53.04l4.08,2.04v112.2l-6.12,2.04c-32.64,14.279-97.92,51-179.52,99.96
		C24.48,581.64,20.4,589.8,20.4,616.32V681.6z"/>
</g>
</svg>
