<?xml version="1.0" encoding="utf-8"?>
<!-- Generator: Adobe Illustrator 18.1.1, SVG Export Plug-In . SVG Version: 6.00 Build 0)  -->
<svg version="1.1" id="Layer_1" xmlns="http://www.w3.org/2000/svg" xmlns:xlink="http://www.w3.org/1999/xlink" x="0px" y="0px"
	 viewBox="0 0 20 17.5" style="enable-background:new 0 0 20 17.5;" xml:space="preserve">
<style type="text/css">
	.st0{fill-rule:evenodd;clip-rule:evenodd;fill:#FFFFFF;}
	.st1{fill:#FFFFFF;}
	.st2{fill:#00ACCD;}
	.st3{fill:#B3B3B3;}
	.st4{fill:#006472;}
	.st5{fill:#E5E5E5;}
	.st6{fill:#003239;}
	.st7{fill:#FFCC00;}
	.st8{fill:#FF3300;}
	.st9{fill:#F7921E;}
	.st10{fill:#646464;}
</style>
<g>
	<polygon class="st10" points="8.1,9.1 8.1,9.1 8.1,9.1 	"/>
	<path class="st10" d="M0,6.6c0,0.4,0.3,0.8,0.7,1.1L7.3,13c0.2,0.1,0.5,0.2,0.7,0.2c0.7,0,1.1-0.5,1.1-1.3V9.8
		c1.6,0.1,7.4,1,9.5,7.3c0.1,0.3,0.3,0.5,0.6,0.5c0,0,0.1,0,0.1,0c0.3-0.1,0.6-0.3,0.6-0.7c0-12-8.8-13.5-10.8-13.7V1.3
		c0-1.1-1-1.6-1.9-1.1L0.7,5.5C0.3,5.8,0,6.2,0,6.6z M1.1,6.6c0,0,0-0.1,0.2-0.1l6.6-5.3C7.9,1.1,8,1.1,8,1.1c0,0,0.1,0.1,0.1,0.2
		v2.5c0,0.4,0.3,0.7,0.7,0.7c0,0,0.2,0,0.4,0c1.7,0.1,7.9,1.2,9.2,9c-3-4.2-7.8-4.9-9.2-5c-0.3,0-0.4,0-0.4,0
		c-0.4,0-0.7,0.3-0.7,0.7v0v2.8c0,0.1,0,0.2,0,0.2l0,0c0,0-0.1,0-0.2-0.1L1.3,6.8C1.1,6.7,1.1,6.6,1.1,6.6z"/>
</g>
</svg>
