<?xml version="1.0" encoding="utf-8"?>
<!-- Generator: Adobe Illustrator 18.1.1, SVG Export Plug-In . SVG Version: 6.00 Build 0)  -->
<svg version="1.1" id="Layer_1" xmlns="http://www.w3.org/2000/svg" xmlns:xlink="http://www.w3.org/1999/xlink" x="0px" y="0px"
	 viewBox="0 0 20.6 16.2" style="enable-background:new 0 0 20.6 16.2;" xml:space="preserve">
<style type="text/css">
	.st0{fill-rule:evenodd;clip-rule:evenodd;fill:#FFFFFF;}
	.st1{fill:#FFFFFF;}
	.st2{fill:#00ACCD;}
	.st3{fill:#B3B3B3;}
	.st4{fill:#006472;}
	.st5{fill:#E5E5E5;}
	.st6{fill:#003239;}
	.st7{fill:#FFCC00;}
	.st8{fill:#FF3300;}
	.st9{fill:#F7921E;}
	.st10{fill:#646464;}
</style>
<g>
	<path class="st2" d="M0.7,16.2c-0.4,0-0.7-0.3-0.7-0.7V9.7C0,9.3,0.3,9,0.7,9s0.7,0.3,0.7,0.7v5h17.7v-5c0-0.4,0.3-0.7,0.7-0.7
		c0.4,0,0.7,0.3,0.7,0.7v5.8c0,0.4-0.3,0.7-0.7,0.7H0.7z"/>
	<path class="st2" d="M4.2,6.8C4,6.6,4,6.4,4,6.2C4,6,4,5.9,4.2,5.7c0.1-0.1,0.3-0.2,0.5-0.2c0.2,0,0.4,0.1,0.5,0.2l4.5,4.5l0-9.5
		C9.7,0.3,10,0,10.4,0c0.4,0,0.7,0.3,0.7,0.7l0,9.5l4.3-4.3c0.1-0.1,0.3-0.2,0.5-0.2c0.2,0,0.4,0.1,0.5,0.2c0.3,0.3,0.3,0.7,0,1
		l-6,6L4.2,6.8z"/>
</g>
</svg>
