<?xml version="1.0" encoding="utf-8"?>
<!-- Generator: Adobe Illustrator 16.0.0, SVG Export Plug-In . SVG Version: 6.00 Build 0)  -->
<!DOCTYPE svg PUBLIC "-//W3C//DTD SVG 1.1//EN" "http://www.w3.org/Graphics/SVG/1.1/DTD/svg11.dtd">
<svg version="1.1" id="Layer_1" xmlns="http://www.w3.org/2000/svg" xmlns:xlink="http://www.w3.org/1999/xlink" x="0px" y="0px"
	 width="612px" height="792px" viewBox="0 0 612 792" enable-background="new 0 0 612 792" xml:space="preserve">
<g>
	<path fill="#94C72F" d="M306,273.6c-67.32,0-122.4,55.08-122.4,122.4c0,67.32,55.08,122.4,122.4,122.4
		c67.32,0,122.4-55.08,122.4-122.4C428.4,328.68,373.32,273.6,306,273.6z M306,495.96c-55.08,0-99.96-44.88-99.96-99.96
		s44.88-99.96,99.96-99.96s99.96,44.88,99.96,99.96S361.08,495.96,306,495.96z"/>
	<path fill="#94C72F" d="M601.8,310.32l-71.399-8.16l42.84-55.08c4.08-4.08,4.08-10.2,0-14.28L469.2,128.76
		c-4.08-4.08-10.2-4.08-14.28,0l-55.08,42.84l-8.16-71.4c0-6.12-6.12-10.2-10.199-10.2H234.6c-6.12,0-10.2,4.08-10.2,10.2
		l-8.16,71.4l-59.16-44.88c-4.08-4.08-10.2-2.04-14.28,0L36.72,230.76c-4.08,4.08-4.08,10.2,0,14.28l42.84,55.08l-71.4,8.16
		c-6.12,0-10.2,6.12-10.2,10.2v146.88c0,6.12,4.08,10.199,10.2,10.199l71.4,8.16L36.72,538.8c-4.08,4.08-2.04,10.2,0,14.28
		l104.04,104.04c4.08,4.08,10.2,4.08,14.28,0l55.08-42.84l8.16,71.399c0,6.12,6.12,10.2,10.2,10.2h146.88
		c6.119,0,10.199-4.08,10.199-10.2l8.16-71.399l55.08,42.84c4.08,4.08,10.2,4.08,14.28,0l104.04-104.04c4.08-4.08,4.08-10.2,0-14.28
		l-42.84-55.08l69.359-8.16c6.12,0,10.2-6.119,10.2-10.199V318.48C612,316.44,607.92,312.36,601.8,310.32z M589.56,459.24
		L510,469.44c-4.08,0-8.16,2.04-8.16,6.119c-2.04,4.08,0,8.16,2.04,10.2L552.84,549l-91.8,91.8l-63.24-48.96
		c-4.08-2.04-8.16-2.04-10.2-2.04c-4.08,2.04-6.119,4.08-6.119,8.16l-10.2,79.56H242.76L232.56,600c0-4.08-4.08-8.16-6.12-8.16
		c-4.08-2.04-8.16,0-10.2,2.04l-65.28,46.92L61.2,551.04l48.96-63.24c2.04-4.08,2.04-8.16,2.04-10.2
		c-2.04-4.08-4.08-6.119-8.16-6.119l-79.56-10.2V332.76l77.52-10.2c4.08,0,8.16-4.08,8.16-6.12c2.04-4.08,0-8.16-2.04-10.2
		l-48.96-65.28l91.8-89.76l63.24,48.96c4.08,2.04,8.16,4.08,10.2,2.04c4.08-2.04,6.12-4.08,6.12-8.16l10.2-79.56h128.52l10.2,77.52
		c0,4.08,2.04,8.16,6.119,8.16c4.08,2.04,8.16,0,10.2-2.04L459,149.16l89.76,89.76l-48.96,63.24c-2.04,4.08-2.04,8.16-2.04,10.2
		c2.04,4.08,4.08,6.12,8.16,6.12l79.561,10.2v130.56H589.56z"/>
</g>
</svg>
