<?xml version="1.0" encoding="utf-8"?>
<!-- Generator: Adobe Illustrator 18.1.0, SVG Export Plug-In . SVG Version: 6.00 Build 0)  -->
<svg version="1.1" id="Layer_1" xmlns="http://www.w3.org/2000/svg" xmlns:xlink="http://www.w3.org/1999/xlink" x="0px" y="0px"
	 viewBox="0 0 20 20" style="enable-background:new 0 0 20 20;" xml:space="preserve">
<style type="text/css">
	.st0{fill-rule:evenodd;clip-rule:evenodd;fill:#FFFFFF;}
	.st1{fill:#FFFFFF;}
	.st2{fill:#00ACCD;}
	.st3{fill:#B3B3B3;}
	.st4{fill:#006472;}
	.st5{fill:#E5E5E5;}
	.st6{fill:#003239;}
	.st7{fill:#FFCC00;}
	.st8{fill:#FF3300;}
	.st9{fill:#F7921E;}
	.st10{fill:#646464;}
</style>
<g>
	<path class="st1" d="M12.7,15.9H7.3c-0.6,0-0.8,0.3-0.9,0.5c-0.1,0.2-0.1,0.5,0.3,1L9,19.6c0.3,0.3,0.6,0.4,1,0.4
		c0.4,0,0.8-0.2,1-0.4l2.2-2.2c0.4-0.4,0.4-0.8,0.3-1C13.5,16.2,13.3,15.9,12.7,15.9z M10.5,19c-0.3,0.3-0.7,0.3-1,0l-2.3-2.3h5.6
		L10.5,19z"/>
	<path class="st1" d="M19.6,9l-2.2-2.2c-0.2-0.2-0.5-0.4-0.7-0.4c-0.3,0-0.7,0.2-0.7,0.9v5.4c0,0.7,0.4,1,0.7,1
		c0.2,0,0.5-0.1,0.7-0.4l2.2-2.2c0.3-0.3,0.4-0.6,0.4-1C20,9.6,19.8,9.2,19.6,9z M19,10.5l-2.3,2.3V7.2L19,9.5
		c0.1,0.1,0.2,0.3,0.2,0.5C19.2,10.2,19.1,10.3,19,10.5z"/>
	<path class="st1" d="M7.3,4.1h5.4c0.6,0,0.8-0.3,0.9-0.5c0.1-0.2,0.1-0.5-0.3-1L11,0.4c-0.6-0.6-1.5-0.6-2.1,0L6.7,2.7
		c-0.4,0.4-0.4,0.8-0.3,1C6.5,3.8,6.7,4.1,7.3,4.1z M9.5,1c0.3-0.3,0.7-0.3,1,0l2.3,2.3H7.2L9.5,1z"/>
	<path class="st1" d="M3.4,6.3c-0.2,0-0.5,0.1-0.7,0.4L0.4,9C0.2,9.2,0,9.6,0,10c0,0.4,0.2,0.8,0.4,1l2.2,2.2
		c0.2,0.2,0.5,0.4,0.7,0.4c0.2,0,0.4-0.1,0.6-0.3c0.1-0.2,0.1-0.4,0.1-0.6V7.3C4.1,6.6,3.7,6.3,3.4,6.3z M3.3,12.8L1,10.5
		c-0.3-0.3-0.3-0.7,0-1l2.3-2.3V12.8z"/>
	<path class="st1" d="M10,5.8c-2.3,0-4.2,1.9-4.2,4.2c0,2.3,1.9,4.2,4.2,4.2c2.3,0,4.2-1.9,4.2-4.2C14.2,7.7,12.3,5.8,10,5.8z
		 M10,13.4c-1.9,0-3.4-1.5-3.4-3.4c0-1.9,1.5-3.4,3.4-3.4c1.9,0,3.4,1.5,3.4,3.4C13.4,11.9,11.9,13.4,10,13.4z"/>
</g>
</svg>
