<?xml version="1.0" encoding="utf-8"?>
<!-- Generator: Adobe Illustrator 18.1.0, SVG Export Plug-In . SVG Version: 6.00 Build 0)  -->
<svg version="1.1" id="Layer_1" xmlns="http://www.w3.org/2000/svg" xmlns:xlink="http://www.w3.org/1999/xlink" x="0px" y="0px"
	 viewBox="0 0 20 20" style="enable-background:new 0 0 20 20;" xml:space="preserve">
<style type="text/css">
	.st0{fill-rule:evenodd;clip-rule:evenodd;fill:#FFFFFF;}
	.st1{fill:#FFFFFF;}
	.st2{fill:#00ACCD;}
	.st3{fill:#B3B3B3;}
	.st4{fill:#006472;}
	.st5{fill:#E5E5E5;}
	.st6{fill:#003239;}
	.st7{fill:#FFCC00;}
	.st8{fill:#FF3300;}
	.st9{fill:#F7921E;}
	.st10{fill:#646464;}
</style>
<g id="user_9_">
	<path class="st6" d="M20,17.4c0,1,0,2.3,0,2.3c0,0.1-0.1,0.3-0.2,0.3H0.2C0.1,20,0,19.8,0,19.7c0,0,0-1.3,0-2.3
		c0-1,0.2-1.4,0.9-1.8c0.6-0.3,4.3-2.6,6.1-3.4V8.8c-0.5-0.4-0.9-1.1-0.9-2c0-2.3,0-2.7,0-2.7C6.1,1.8,7.4,0,10,0s3.9,1.8,3.9,4.1
		v2.7c0,1-0.3,1.6-0.9,2v3.4c1.9,0.8,5.5,3.1,6.1,3.4C19.8,16.1,20,16.5,20,17.4z"/>
</g>
</svg>
