<?xml version="1.0" encoding="utf-8"?>
<!-- Generator: Adobe Illustrator 18.1.0, SVG Export Plug-In . SVG Version: 6.00 Build 0)  -->
<svg version="1.1" id="Layer_1" xmlns="http://www.w3.org/2000/svg" xmlns:xlink="http://www.w3.org/1999/xlink" x="0px" y="0px"
	 viewBox="0 0 30 30" style="enable-background:new 0 0 30 30;" xml:space="preserve">
<style type="text/css">
	.st0{fill-rule:evenodd;clip-rule:evenodd;fill:#FFFFFF;}
	.st1{fill:#FFFFFF;}
	.st2{fill:#00ACCD;}
	.st3{fill:#B3B3B3;}
	.st4{fill:#006472;}
	.st5{fill:#E5E5E5;}
	.st6{fill:#003239;}
	.st7{fill:#FFCC00;}
	.st8{fill:#FF3300;}
	.st9{fill:#F7921E;}
	.st10{fill:#646464;}
</style>
<g>
	<path class="st1" d="M15,9c-3.3,0-6,2.7-6,6c0,3.3,2.7,6,6,6c3.3,0,6-2.7,6-6C21,11.7,18.3,9,15,9z M15,19.9
		c-2.7,0-4.9-2.2-4.9-4.9c0-2.7,2.2-4.9,4.9-4.9c2.7,0,4.9,2.2,4.9,4.9C19.9,17.7,17.7,19.9,15,19.9z"/>
	<path class="st1" d="M29.5,10.8l-3.5-0.4l2.1-2.7c0.2-0.2,0.2-0.5,0-0.7l-5.1-5.1c-0.2-0.2-0.5-0.2-0.7,0l-2.7,2.1l-0.4-3.5
		c0-0.3-0.3-0.5-0.5-0.5h-7.2c-0.3,0-0.5,0.2-0.5,0.5l-0.4,3.5L7.7,1.8c-0.2-0.2-0.5-0.1-0.7,0L1.8,6.9c-0.2,0.2-0.2,0.5,0,0.7
		l2.1,2.7l-3.5,0.4c-0.3,0-0.5,0.3-0.5,0.5v7.2c0,0.3,0.2,0.5,0.5,0.5l3.5,0.4l-2.1,2.7c-0.2,0.2-0.1,0.5,0,0.7l5.1,5.1
		c0.2,0.2,0.5,0.2,0.7,0l2.7-2.1l0.4,3.5c0,0.3,0.3,0.5,0.5,0.5h7.2c0.3,0,0.5-0.2,0.5-0.5l0.4-3.5l2.7,2.1c0.2,0.2,0.5,0.2,0.7,0
		l5.1-5.1c0.2-0.2,0.2-0.5,0-0.7l-2.1-2.7l3.4-0.4c0.3,0,0.5-0.3,0.5-0.5v-7.2C30,11.1,29.8,10.9,29.5,10.8z M28.9,18.1L25,18.6
		c-0.2,0-0.4,0.1-0.4,0.3c-0.1,0.2,0,0.4,0.1,0.5l2.4,3.1L22.6,27l-3.1-2.4c-0.2-0.1-0.4-0.1-0.5-0.1c-0.2,0.1-0.3,0.2-0.3,0.4
		l-0.5,3.9h-6.3L11.4,25c0-0.2-0.2-0.4-0.3-0.4c-0.2-0.1-0.4,0-0.5,0.1L7.4,27l-4.4-4.4l2.4-3.1c0.1-0.2,0.1-0.4,0.1-0.5
		c-0.1-0.2-0.2-0.3-0.4-0.3l-3.9-0.5v-6.3L5,11.4c0.2,0,0.4-0.2,0.4-0.3c0.1-0.2,0-0.4-0.1-0.5L2.9,7.4L7.4,3l3.1,2.4
		c0.2,0.1,0.4,0.2,0.5,0.1c0.2-0.1,0.3-0.2,0.3-0.4l0.5-3.9h6.3L18.6,5c0,0.2,0.1,0.4,0.3,0.4c0.2,0.1,0.4,0,0.5-0.1l3.1-2.4
		l4.4,4.4l-2.4,3.1c-0.1,0.2-0.1,0.4-0.1,0.5c0.1,0.2,0.2,0.3,0.4,0.3l3.9,0.5V18.1z"/>
</g>
</svg>
