<?xml version="1.0" encoding="utf-8"?>
<!-- Generator: Adobe Illustrator 18.1.0, SVG Export Plug-In . SVG Version: 6.00 Build 0)  -->
<svg version="1.1" id="Layer_1" xmlns="http://www.w3.org/2000/svg" xmlns:xlink="http://www.w3.org/1999/xlink" x="0px" y="0px"
	 viewBox="0 0 20 17.4" style="enable-background:new 0 0 20 17.4;" xml:space="preserve">
<style type="text/css">
	.st0{fill-rule:evenodd;clip-rule:evenodd;fill:#FFFFFF;}
	.st1{fill:#FFFFFF;}
	.st2{fill:#00ACCD;}
	.st3{fill:#B3B3B3;}
	.st4{fill:#006472;}
	.st5{fill:#E5E5E5;}
	.st6{fill:#003239;}
	.st7{fill:#FFCC00;}
	.st8{fill:#FF3300;}
	.st9{fill:#F7921E;}
	.st10{fill:#646464;}
</style>
<g>
	<g>
		<path class="st1" d="M17.1,17.4H2c-1.1,0-2-0.9-2-2V3.5c0-1.1,0.9-2,2-2h9.2c0.3,0,0.6,0.3,0.6,0.6s-0.3,0.6-0.6,0.6H2
			c-0.5,0-0.9,0.4-0.9,0.9v11.9c0,0.5,0.4,0.9,0.9,0.9h15.1c0.5,0,0.9-0.4,0.9-0.9v-6c0-0.3,0.3-0.6,0.6-0.6s0.6,0.3,0.6,0.6v6
			C19.1,16.6,18.2,17.4,17.1,17.4z"/>
	</g>
	<path class="st1" d="M19.4,0h-4.6c-0.3,0-0.6,0.3-0.6,0.6c0,0.3,0.3,0.6,0.6,0.6h3.2l-8,8c-0.2,0.2-0.2,0.6,0,0.8
		c0.1,0.1,0.3,0.2,0.4,0.2c0.1,0,0.3-0.1,0.4-0.2l8-8v3.2c0,0.3,0.3,0.6,0.6,0.6c0.3,0,0.6-0.3,0.6-0.6V0.6C20,0.3,19.7,0,19.4,0z"
		/>
</g>
</svg>
