<?xml version="1.0" encoding="utf-8"?>
<!-- Generator: Adobe Illustrator 18.1.0, SVG Export Plug-In . SVG Version: 6.00 Build 0)  -->
<svg version="1.1" id="Layer_1" xmlns="http://www.w3.org/2000/svg" xmlns:xlink="http://www.w3.org/1999/xlink" x="0px" y="0px"
	 viewBox="0 0 30 25.7" style="enable-background:new 0 0 30 25.7;" xml:space="preserve">
<style type="text/css">
	.st0{fill-rule:evenodd;clip-rule:evenodd;fill:#FFFFFF;}
	.st1{fill:#FFFFFF;}
	.st2{fill:#00ACCD;}
	.st3{fill:#B3B3B3;}
	.st4{fill:#006472;}
	.st5{fill:#E5E5E5;}
	.st6{fill:#003239;}
	.st7{fill:#FFCC00;}
	.st8{fill:#FF3300;}
	.st9{fill:#F7921E;}
	.st10{fill:#646464;}
</style>
<g id="list_2_">
	<g>
		<path class="st0" d="M30,17.8c0,0.3-0.3,0.6-0.6,0.6H6.9c-0.3,0-0.6-0.3-0.6-0.6v-2.4c0-0.3,0.3-0.6,0.6-0.6h22.5
			c0.3,0,0.6,0.3,0.6,0.6V17.8z M3.8,15.3c0-0.3-0.3-0.6-0.6-0.6H0.6C0.3,14.7,0,15,0,15.3v2.4c0,0.3,0.3,0.6,0.6,0.6h2.5
			c0.3,0,0.6-0.3,0.6-0.6V15.3z M30,22.7c0-0.3-0.3-0.6-0.6-0.6H6.9c-0.3,0-0.6,0.3-0.6,0.6v2.4c0,0.3,0.3,0.6,0.6,0.6h22.5
			c0.3,0,0.6-0.3,0.6-0.6V22.7z M3.8,22.7c0-0.3-0.3-0.6-0.6-0.6H0.6C0.3,22,0,22.3,0,22.7v2.4c0,0.3,0.3,0.6,0.6,0.6h2.5
			c0.3,0,0.6-0.3,0.6-0.6V22.7z M30,8c0-0.3-0.3-0.6-0.6-0.6H6.9C6.5,7.3,6.2,7.6,6.2,8v2.4c0,0.3,0.3,0.6,0.6,0.6h22.5
			c0.3,0,0.6-0.3,0.6-0.6V8z M3.8,8c0-0.3-0.3-0.6-0.6-0.6H0.6C0.3,7.3,0,7.6,0,8v2.4C0,10.7,0.3,11,0.6,11h2.5
			c0.3,0,0.6-0.3,0.6-0.6V8z M30,0.6C30,0.3,29.7,0,29.4,0H6.9C6.5,0,6.2,0.3,6.2,0.6v2.4c0,0.3,0.3,0.6,0.6,0.6h22.5
			c0.3,0,0.6-0.3,0.6-0.6V0.6z M3.8,0.6C3.8,0.3,3.5,0,3.1,0H0.6C0.3,0,0,0.3,0,0.6v2.4c0,0.3,0.3,0.6,0.6,0.6h2.5
			c0.3,0,0.6-0.3,0.6-0.6V0.6z"/>
	</g>
</g>
</svg>
