<?xml version="1.0" encoding="utf-8"?>
<!-- Generator: Adobe Illustrator 16.0.0, SVG Export Plug-In . SVG Version: 6.00 Build 0)  -->
<!DOCTYPE svg PUBLIC "-//W3C//DTD SVG 1.1//EN" "http://www.w3.org/Graphics/SVG/1.1/DTD/svg11.dtd">
<svg version="1.1" id="Layer_1" xmlns="http://www.w3.org/2000/svg" xmlns:xlink="http://www.w3.org/1999/xlink" x="0px" y="0px"
	 width="612px" height="792px" viewBox="0 0 612 792" enable-background="new 0 0 612 792" xml:space="preserve">
<g>
	<path fill="#94C72F" d="M612,210.36c0-2.04,0-2.04-2.04-4.08c0-2.04,0-2.04,0-4.08l0,0c0-2.04-2.04-2.04-4.08-2.04
		s-2.04-2.04-4.08-2.04l0,0H10.2l0,0c-2.04,0-2.04,0-4.08,2.04c-2.04,0-2.04,0-4.08,2.04l0,0c0,2.04,0,2.04,0,4.08
		C0,208.32,0,210.36,0,210.36V579.6c0,2.04,0,2.04,2.04,4.08c0,2.04,0,2.04,0,4.08l0,0c2.04,2.04,4.08,4.08,8.16,4.08h589.56
		c4.08,0,6.12-2.04,8.16-4.08l0,0c0,0,0-2.04,0-4.08s2.04-2.04,2.04-4.08V210.36H612z M22.44,232.8l208.08,161.16L22.44,557.16
		V232.8z M357,385.8L357,385.8l-48.96,38.76L306,426.6l-2.04-2.04L255,387.84l0,0L42.84,222.6h526.32L357,385.8z M248.88,410.28
		l51,38.76c2.04,0,2.04,0,4.08,2.04H306l0,0l0,0h2.04c2.04,0,2.04,0,4.08-2.04l51-38.76L569.16,569.4H42.84L248.88,410.28z
		 M381.48,396L589.56,234.84V559.2L381.48,396z"/>
</g>
</svg>
