<?xml version="1.0" encoding="utf-8"?>
<!-- Generator: Adobe Illustrator 18.1.0, SVG Export Plug-In . SVG Version: 6.00 Build 0)  -->
<svg version="1.1" id="Layer_1" xmlns="http://www.w3.org/2000/svg" xmlns:xlink="http://www.w3.org/1999/xlink" x="0px" y="0px"
	 viewBox="0 0 94.6 100" style="enable-background:new 0 0 94.6 100;" xml:space="preserve">
<style type="text/css">
	.st0{fill-rule:evenodd;clip-rule:evenodd;fill:#FFFFFF;}
	.st1{fill:#FFFFFF;}
	.st2{fill:#00ACCD;}
	.st3{fill:#B3B3B3;}
	.st4{fill:#006472;}
	.st5{fill:#E5E5E5;}
	.st6{fill:#003239;}
	.st7{fill:#FFCC00;}
	.st8{fill:#FF3300;}
	.st9{fill:#F7921E;}
	.st10{fill:#646464;}
</style>
<g>
	<g>
		<path class="st2" d="M92.1,35c-0.4-1.2-1.6-1.8-2.8-1.4c-1.2,0.4-1.8,1.7-1.4,2.8c5.2,15.6,1.3,32.5-10.2,44
			c-16.8,16.7-44,16.8-60.8,0c-0.5-0.5-0.8-1-1.2-1.5l15.5,0c1.2,0,2.2-1,2.2-2.2c0-1.2-1-2.2-2.2-2.2l-23.3,0v23.3
			c0,1.2,1,2.2,2.2,2.2s2.2-1,2.2-2.2V81.8c0.5,0.6,0.9,1.1,1.5,1.7c9.2,9.2,21.4,13.9,33.5,13.9c12.1,0,24.3-4.6,33.5-13.9
			C93.5,70.8,97.8,52.2,92.1,35z"/>
		<path class="st2" d="M16.9,19.6c16.8-16.8,44-16.8,60.7,0c0.5,0.5,0.8,1,1.2,1.5l-15.5,0c-1.2,0-2.2,1-2.2,2.2
			c0,1.2,1,2.2,2.2,2.2l23.3,0V2.2c0-1.2-1-2.2-2.2-2.2c-1.2,0-2.2,1-2.2,2.2v15.9c-0.5-0.6-0.9-1.1-1.5-1.7
			C62.3-2,32.3-2,13.8,16.5C1.1,29.2-3.2,47.8,2.5,65c0.3,0.9,1.2,1.5,2.1,1.5c0.2,0,0.5,0,0.7-0.1c1.2-0.4,1.8-1.7,1.4-2.8
			C1.5,48,5.4,31.1,16.9,19.6z"/>
	</g>
	<g>
		<path class="st2" d="M62.3,37.2L62.3,37.2L52.1,26.9c-0.1-0.1-0.3-0.2-0.5-0.2H32.8c-0.4,0-0.8,0.3-0.8,0.8v41.1
			c0,0.4,0.3,0.8,0.8,0.8h29c0.4,0,0.8-0.3,0.8-0.8V37.7C62.6,37.5,62.5,37.3,62.3,37.2z M52.3,29.3l7.7,7.7h-7.7V29.3z M61,67.7
			H33.5V28.2h17.2v9.5c0,0.4,0.3,0.8,0.8,0.8H61V67.7z"/>
		<path class="st2" d="M37.1,44.8c0,0.4,0.3,0.8,0.8,0.8h18.8c0.4,0,0.8-0.3,0.8-0.8c0-0.4-0.3-0.8-0.8-0.8H37.9
			C37.5,44,37.1,44.4,37.1,44.8z"/>
		<path class="st2" d="M56.7,49.6H37.9c-0.4,0-0.8,0.3-0.8,0.8c0,0.4,0.3,0.8,0.8,0.8h18.8c0.4,0,0.8-0.3,0.8-0.8
			C57.4,49.9,57.1,49.6,56.7,49.6z"/>
		<path class="st2" d="M56.7,55.2H37.9c-0.4,0-0.8,0.3-0.8,0.8c0,0.4,0.3,0.8,0.8,0.8h18.8c0.4,0,0.8-0.3,0.8-0.8
			C57.4,55.5,57.1,55.2,56.7,55.2z"/>
		<path class="st2" d="M56.7,60.7H37.9c-0.4,0-0.8,0.3-0.8,0.8c0,0.4,0.3,0.8,0.8,0.8h18.8c0.4,0,0.8-0.3,0.8-0.8
			C57.4,61,57.1,60.7,56.7,60.7z"/>
	</g>
</g>
</svg>
