<?xml version="1.0" encoding="utf-8"?>
<!-- Generator: Adobe Illustrator 16.0.0, SVG Export Plug-In . SVG Version: 6.00 Build 0)  -->
<!DOCTYPE svg PUBLIC "-//W3C//DTD SVG 1.0//EN" "http://www.w3.org/TR/2001/REC-SVG-20010904/DTD/svg10.dtd">
<svg version="1.0" id="Layer_1" xmlns="http://www.w3.org/2000/svg" xmlns:xlink="http://www.w3.org/1999/xlink" x="0px" y="0px"
	 width="612px" height="792px" viewBox="0 0 612 792" enable-background="new 0 0 612 792" xml:space="preserve">
<g>
	<g>
		<path fill="#FFFFFF" d="M88.74,129.78H550.8c33.66,0,61.2,27.54,61.2,61.2v364.14c0,33.659-27.54,61.2-61.2,61.2H269.28
			c-9.181,0-18.36-9.18-18.36-18.36s9.18-18.36,18.36-18.36H550.8c15.3,0,27.54-12.24,27.54-27.539V187.92
			c0-15.3-12.24-27.54-27.54-27.54H88.74c-15.3,0-27.54,12.24-27.54,27.54v183.6c0,9.181-9.181,18.36-18.36,18.36
			S24.48,380.7,24.48,371.52v-183.6C27.54,154.26,55.08,129.78,88.74,129.78z"/>
	</g>
	<path fill="#FFFFFF" d="M18.36,662.22h140.76c9.18,0,18.36-9.18,18.36-18.36c0-9.18-9.181-18.359-18.36-18.359H61.2L306,380.7
		c6.12-6.12,6.12-18.36,0-24.48c-3.06-3.06-9.18-6.12-12.24-6.12c-3.06,0-9.18,3.061-12.24,6.12l-244.8,244.8V503.1
		c0-9.18-9.18-18.359-18.359-18.359C9.18,484.74,0,493.92,0,503.1v140.76C0,653.04,9.18,662.22,18.36,662.22z"/>
</g>
</svg>
