<?xml version="1.0" encoding="utf-8"?>
<!-- Generator: Adobe Illustrator 18.1.0, SVG Export Plug-In . SVG Version: 6.00 Build 0)  -->
<svg version="1.1" id="Layer_1" xmlns="http://www.w3.org/2000/svg" xmlns:xlink="http://www.w3.org/1999/xlink" x="0px" y="0px"
	 viewBox="0 0 20 20" style="enable-background:new 0 0 20 20;" xml:space="preserve">
<style type="text/css">
	.st0{fill-rule:evenodd;clip-rule:evenodd;fill:#FFFFFF;}
	.st1{fill:#FFFFFF;}
	.st2{fill:#00ACCD;}
	.st3{fill:#B3B3B3;}
	.st4{fill:#006472;}
	.st5{fill:#E5E5E5;}
	.st6{fill:#003239;}
	.st7{fill:#FFCC00;}
	.st8{fill:#FF3300;}
	.st9{fill:#F7921E;}
	.st10{fill:#646464;}
</style>
<g id="search_19_">
	<g id="search_20_">
		<path class="st6" d="M19.9,17.5l-5-5c0.8-1.3,1.3-2.8,1.3-4.4c0-4.5-3.6-8.1-8.1-8.1C3.6,0,0,3.6,0,8.1c0,4.5,3.6,8.1,8.1,8.1
			c1.6,0,3.1-0.5,4.4-1.3l5,5c0.2,0.2,0.4,0.2,0.6,0l1.8-1.8C20,17.9,20,17.6,19.9,17.5z M2.6,8.1c0-3,2.5-5.5,5.5-5.5
			c3,0,5.5,2.5,5.5,5.5c0,3-2.5,5.5-5.5,5.5C5,13.6,2.6,11.1,2.6,8.1z"/>
	</g>
</g>
</svg>
