<?xml version="1.0" encoding="utf-8"?>
<!-- Generator: Adobe Illustrator 18.1.0, SVG Export Plug-In . SVG Version: 6.00 Build 0)  -->
<svg version="1.1" id="Layer_1" xmlns="http://www.w3.org/2000/svg" xmlns:xlink="http://www.w3.org/1999/xlink" x="0px" y="0px"
	 viewBox="0 0 15 15" style="enable-background:new 0 0 15 15;" xml:space="preserve">
<style type="text/css">
	.st0{fill-rule:evenodd;clip-rule:evenodd;fill:#FFFFFF;}
	.st1{fill:#FFFFFF;}
	.st2{fill:#00ACCD;}
	.st3{fill:#B3B3B3;}
	.st4{fill:#006472;}
	.st5{fill:#E5E5E5;}
	.st6{fill:#003239;}
	.st7{fill:#FFCC00;}
	.st8{fill:#FF3300;}
	.st9{fill:#F7921E;}
	.st10{fill:#646464;}
</style>
<g id="search_11_">
	<g id="search_12_">
		<path class="st4" d="M14.9,13.1l-3.8-3.8c0.6-0.9,1-2.1,1-3.3C12.1,2.7,9.4,0,6.1,0C2.7,0,0,2.7,0,6.1c0,3.3,2.7,6.1,6.1,6.1
			c1.2,0,2.3-0.4,3.3-1l3.8,3.8c0.1,0.1,0.3,0.1,0.5,0l1.4-1.4C15,13.4,15,13.2,14.9,13.1z M1.9,6.1c0-2.3,1.9-4.1,4.1-4.1
			c2.3,0,4.1,1.9,4.1,4.1c0,2.3-1.9,4.1-4.1,4.1C3.8,10.2,1.9,8.3,1.9,6.1z"/>
	</g>
</g>
</svg>
