<?xml version="1.0" encoding="utf-8"?>
<!-- Generator: Adobe Illustrator 17.1.0, SVG Export Plug-In . SVG Version: 6.00 Build 0)  -->
<!DOCTYPE svg PUBLIC "-//W3C//DTD SVG 1.1//EN" "http://www.w3.org/Graphics/SVG/1.1/DTD/svg11.dtd">
<svg version="1.1" id="Layer_1" xmlns="http://www.w3.org/2000/svg" xmlns:xlink="http://www.w3.org/1999/xlink" x="0px" y="0px"
	 viewBox="0 0 20 20" enable-background="new 0 0 20 20" xml:space="preserve">
<g>
	<path fill="#FFFFFF" d="M12.7,15.9H7.3c-0.6,0-0.8,0.3-0.9,0.5c-0.1,0.2-0.1,0.5,0.3,1L9,19.6c0.3,0.3,0.6,0.4,1,0.4
		c0.4,0,0.8-0.2,1-0.4l2.2-2.2c0.4-0.4,0.4-0.8,0.3-1C13.5,16.2,13.3,15.9,12.7,15.9z M12.7,16.8L10.5,19c-0.3,0.3-0.7,0.3-1,0
		l-2.2-2.2c0,0-0.1-0.1-0.1-0.1c0,0,0.1,0,0.1,0L12.7,16.8C12.7,16.7,12.8,16.7,12.7,16.8C12.8,16.7,12.8,16.7,12.7,16.8z"/>
	<path fill="#FFFFFF" d="M19.6,9l-2.2-2.2c-0.2-0.2-0.5-0.4-0.7-0.4c-0.3,0-0.7,0.2-0.7,0.9v5.4c0,0.7,0.4,0.9,0.7,0.9
		c0.2,0,0.5-0.1,0.7-0.4l2.2-2.2c0.3-0.3,0.4-0.6,0.4-1C20,9.6,19.8,9.2,19.6,9z M19,10.5l-2.2,2.2c0,0-0.1,0.1-0.1,0.1
		c0,0,0-0.1,0-0.1V7.3c0,0,0-0.1,0-0.1c0,0,0.1,0,0.1,0.1L19,9.5c0.1,0.1,0.2,0.3,0.2,0.5C19.2,10.2,19.2,10.4,19,10.5z"/>
	<path fill="#FFFFFF" d="M7.3,4.1h5.4c0.6,0,0.8-0.3,0.9-0.5c0.1-0.2,0.1-0.5-0.3-1L11,0.4c-0.6-0.6-1.5-0.6-2.1,0L6.7,2.7
		c-0.4,0.4-0.4,0.8-0.3,1C6.5,3.8,6.7,4.1,7.3,4.1z M7.3,3.2L9.5,1c0.3-0.3,0.7-0.3,1,0l2.2,2.2c0,0,0.1,0.1,0.1,0.1
		c0,0-0.1,0-0.1,0L7.3,3.2C7.3,3.3,7.2,3.3,7.3,3.2C7.2,3.3,7.2,3.2,7.3,3.2z"/>
	<path fill="#FFFFFF" d="M3.4,6.4c-0.2,0-0.5,0.1-0.7,0.4L0.4,9C0.2,9.2,0,9.6,0,10c0,0.4,0.2,0.8,0.4,1l2.2,2.2
		c0.2,0.2,0.5,0.4,0.7,0.4c0.2,0,0.4-0.1,0.6-0.3c0.1-0.2,0.1-0.4,0.1-0.6V7.3C4.1,6.6,3.7,6.4,3.4,6.4z M3.3,12.7
		c0,0.1,0,0.1,0,0.1C3.3,12.8,3.3,12.8,3.3,12.7L1,10.5c-0.3-0.3-0.3-0.7,0-1l2.2-2.2c0,0,0.1-0.1,0.1-0.1c0,0,0,0.1,0,0.1V12.7z"/>
	<path fill="#FFFFFF" d="M10,5.8c-2.3,0-4.2,1.9-4.2,4.2c0,2.3,1.9,4.2,4.2,4.2c2.3,0,4.2-1.9,4.2-4.2C14.2,7.7,12.3,5.8,10,5.8z
		 M10,13.4c-1.9,0-3.4-1.5-3.4-3.4c0-1.9,1.5-3.4,3.4-3.4c1.9,0,3.4,1.5,3.4,3.4C13.4,11.9,11.9,13.4,10,13.4z"/>
</g>
</svg>
